<svg width="20" height="18" viewBox="0 0 20 18" fill="none" xmlns="http://www.w3.org/2000/svg">
<path d="M9.14113 16.8269C9.29443 16.9657 9.49587 17.039 9.70247 17.0313C9.90908 17.0236 10.1045 16.9355 10.2471 16.7858C10.3896 16.636 10.4681 16.4365 10.4656 16.2298C10.4632 16.023 10.38 15.8254 10.234 15.6791L3.62722 9.38628H11.4135H19.1997C19.41 9.38628 19.6116 9.30277 19.7603 9.15411C19.9089 9.00545 19.9924 8.80383 19.9924 8.5936C19.9924 8.38337 19.9089 8.18175 19.7603 8.03309C19.6116 7.88443 19.41 7.80092 19.1997 7.80092H11.4135H3.62722L10.234 1.50702C10.38 1.3607 10.4632 1.1631 10.4656 0.956364C10.4681 0.749628 10.3896 0.550117 10.2471 0.400382C10.1045 0.250646 9.90908 0.162537 9.70247 0.154846C9.49587 0.147155 9.29443 0.22049 9.14113 0.359212L1.29885 7.8284C1.12721 7.99125 1.0155 8.20722 0.981777 8.44141C0.962431 8.54234 0.96279 8.64606 0.982834 8.74685C1.01678 8.98066 1.12848 9.19623 1.29991 9.3588L9.14113 16.8269Z" fill="black"/>
</svg>
